# xmcd
#
# Track frame offsets: 
#        150
#        16147
#        31225
#        47052
#        59020
#        70720
#        82642
#        94187
#        106135
#        116605
#        126542
#        136990
#
# Disc length: 1965 seconds
#
# Revision: 1
# Processed by: cddbd v1.5PL3 Copyright (c) Steve Scherf et al.
# Submitted via: ExactAudioCopy v0.90b4
#
DISCID=9907ab0c
DTITLE=Mel Tillis - 36 All-Time Greatest Hits - Disc 3
DYEAR=1900
DGENRE=Country
TTITLE0=Ain't No California
TTITLE1=Coca Cola Cowboy
TTITLE2=Send Me Down To Tucson
TTITLE3=These Lonely Hands Of Mine
TTITLE4=Heaven Everyday
TTITLE5=She'll Be Hanging 'Round Somewhere
TTITLE6=Old Faithful
TTITLE7=Who's Julie
TTITLE8=Life Turned Her That Way
TTITLE9=Something Special
TTITLE10=Goodbye Wheeling
TTITLE11=Stateside
EXTD=
EXTT0=
EXTT1=
EXTT2=
EXTT3=
EXTT4=
EXTT5=
EXTT6=
EXTT7=
EXTT8=
EXTT9=
EXTT10=
EXTT11=
PLAYORDER=
